<?xml version="1.0" encoding="UTF-8"?>
<svg id="Layer_1" data-name="Layer 1" xmlns="http://www.w3.org/2000/svg" viewBox="0 0 117.55 22.91">
  <path d="m20.1,9.71c-.8,1.28-1.42,2.38-2.13,3.41-.42.61-.93,1.2-1.5,1.65-.92.72-1.85.41-2.03-.74-.2-1.27-.16-2.58-.2-3.87-.03-.88,0-1.77,0-2.77-.24.29-.45.51-.62.77-1.24,1.88-1.84,4-2.23,6.18-.07.4-.09.77-.63.79-.54.02-1.05,0-1.2-.65-.08-.33-.12-.68-.13-1.02,0-2.32,0-4.63.01-6.95,0-.35-.09-.78.5-.76.69.01,1.28.38,1.28.84.01,1.22,0,2.43.11,3.69.14-.37.24-.76.41-1.11.42-.87.8-1.78,1.34-2.57.67-.98,1.55-1.05,2.53-.4.42.28.65.63.63,1.16-.06,1.5-.09,3.01-.12,4.51,0,.26,0,.53.07.79.05.22.18.42.28.63.21-.14.49-.23.62-.43.53-.79,1.02-1.61,1.51-2.42.16-.26.28-.54.44-.8.18-.29.23-.53,0-.86-.48-.72-.27-1.44.18-2.1.45-.66,1.24-.96,1.97-.8.48.11.67.47.54.87-.21.66-.53,1.29-.84,2,.34.26.76.6,1.2.92,1.26.88,2.09,1.95,1.52,3.63,1.08-.4,1.82-1.54,1.81-2.59-.01-1.4.02-2.8.03-4.21,0-.3,0-.6,0-.99-.56,0-1.08,0-1.6,0-.31,0-.68.1-.67-.44,0-.58.27-1,.71-1.01.53-.01,1.05,0,1.73,0,0-.72-.01-1.4,0-2.08.02-.76.19-.88.94-.73.18.04.35.09.53.14.49.11.69.37.63.91-.07.64-.02,1.29-.02,2,.68,0,1.35-.01,2.01,0,.33,0,.77-.03.72.5-.04.45-.12.89-.78.84-.66-.05-1.33-.01-2.17-.01,0,1.07,0,2.08,0,3.09.01,1.3,0,2.6.1,3.89.03.43.3,1.06.63,1.19.56.24.8-.43,1.12-.8.78-.89.61-2.01.8-3.05.17-.88.38-1.79.77-2.6.75-1.54,2.49-2.21,4.02-.6.04-.66.44-.71.93-.59.51.13,1.01.19.99.96-.05,1.83-.02,3.65-.02,5.48,0,.14-.03.31.04.42.18.29.36.73.61.78.25.05.67-.22.87-.47.8-.96,1.13-2.08,1.19-3.35.04-.84.3-1.72.66-2.5.93-1.99,2.41-2.27,4.1-.86.12-.73.66-.59,1.11-.49.48.1.98.19.94.93-.09,1.74-.11,3.49-.15,5.24,0,.22,0,.44,0,.66.06.03.12.06.19.09.46-.73.97-1.45,1.38-2.21.28-.51.44-1.09.62-1.65.16-.5.35-.96-.11-1.49-.4-.47-.2-1.48.33-1.81.35-.21.9-.31,1.29-.21.55.15.48.72.42,1.29.59-.1,1.16-.2,1.72-.28,1.16-.16,1.54.29,1.36,1.45-.2,1.28-.37,2.56-.45,3.85-.03.48.16,1,.35,1.46.23.55.69.62,1.04.17.6-.77,1.21-1.52,1.19-2.64-.03-1.23.18-2.46.79-3.58.78-1.45,2.45-2.34,4.07-.69.1-.66.51-.67,1.02-.54.52.13.93.25.91.96-.05,1.83-.02,3.65-.02,5.48,0,.12-.03.27.03.36.19.3.36.75.64.83.22.07.67-.23.86-.48.77-1.04,1.32-2.14,1.18-3.52-.11-1.11-.02-2.23,0-3.35.01-.68.17-.8.81-.66q1.02.22,1.02,1.26c0,.71,0,1.42.09,2.17.09-.24.18-.49.27-.73.25-.66.48-1.33.74-1.99.2-.51.49-.88,1.14-.73.82.19,1.23.57,1.26,1.26.05,1.04.08,2.07.12,3.11,0,.14.02.28.14.45.08-.31.14-.63.23-.94.33-1.06.65-2.13,1.02-3.18.27-.74.63-.87,1.39-.59,1.02.37,1.17.62,1.15,1.7-.02,1.46-.03,2.93,0,4.39,0,.48-.08,1.14.53,1.3.57.14.79-.46,1.05-.85.33-.51.66-1.02.95-1.56.08-.15.08-.38.06-.56-.35-2.95.15-5.64,2.46-7.72,1.28-1.15,2.83-1.53,4.53-1.25,1.3.21,2.04,1.06,2.42,2.38.06-.73.12-1.35.16-1.97.02-.4.23-.55.59-.49.3.05.59.16.88.21.49.1.63.38.61.87-.11,2.86-.21,5.73-.26,8.59-.01.78.08,1.58.26,2.34.19.76.75.85,1.22.21.43-.58.86-1.21,1.11-1.88.19-.53.05-1.16.12-1.74.17-1.34.68-2.5,1.81-3.31,1.46-1.05,3.2-.73,4.15.8.9,1.44.9,3.01.43,4.58-.18.61-.45,1.23-.79,1.76-1.11,1.74-3.3,1.85-4.62.24-.24-.29-.43-.63-.66-.96-.28.41-.54.81-.84,1.18-1.25,1.55-3.06,1.28-3.82-.57-.08-.2-.15-.4-.23-.61-3.55,3.33-7.16,2.91-9.15-1.06-.45.66-.85,1.34-1.35,1.94-.34.42-.77.79-1.22,1.07-.68.43-1.26.29-1.54-.45-.3-.82-.49-1.71-.56-2.58-.09-1.22-.02-2.46-.02-3.69-.08-.02-.16-.03-.24-.05-.32,1.15-.68,2.29-.96,3.45-.16.65-.16,1.33-.28,1.99-.05.29-.18.78-.3.79-.41.03-.93,0-1.22-.23-.3-.25-.48-.75-.53-1.17-.2-1.51-.32-3.02-.49-4.63-.13.19-.26.34-.34.52-.58,1.26-.97,2.57-1.03,3.97-.02.55-.1,1.1-.08,1.64.01.55-.23.73-.74.66-.16-.02-.33,0-.49-.03-.58-.08-.99-.33-.94-1.01.01-.17-.04-.35-.07-.62-.61.81-1.15,1.59-2.21,1.65-.91.05-1.63-.55-2-1.72-.64.95-1.39,1.7-2.59,1.72-1.25.03-1.87-.8-2.33-1.8-.4.43-.75.89-1.18,1.25-.88.72-1.87.62-2.67-.2-.6-.61-.89-1.38-.89-2.21,0-1.31.12-2.62.19-4.04-.28,0-.7-.05-1.1.02-.17.03-.33.31-.42.51-.72,1.65-1.26,3.42-2.58,4.7-.87.84-1.03,1.74-1.02,2.86.02,1.06-.11,2.16-.38,3.18-.44,1.7-2.15,2.65-3.65,2.2-1.26-.38-1.92-1.53-1.44-2.76.27-.7.75-1.34,1.25-1.91.66-.74,1.41-1.4,2.16-2.06.34-.3.45-.6.25-1.08-.69.79-1.47,1.34-2.56,1.24-1.17-.11-1.67-.95-2.1-1.89-.3.4-.58.8-.89,1.17-.5.59-1.14.94-1.93.77-.85-.18-1.37-.74-1.58-1.71-.66.97-1.41,1.72-2.6,1.75-1.26.03-1.88-.79-2.37-1.86-.66.91-1.24,1.9-2.53,1.85-1.33-.05-1.78-1.02-2.15-2.18-.17.2-.33.35-.45.52-1.48,2.03-4.43,1.94-6.05,1.31-.67-.26-.74-.56-.38-1.18.36-.63.63-.7,1.21-.31.07.05.13.1.2.14.42.25.84.54,1.34.18.42-.31.66-1,.33-1.54-.48-.8-1.11-1.5-1.76-2.34Zm66.22-4.86c-.05.11-.14.28-.24.46-.27.5-.7.78-1.27.8-.62.03-.86-.28-.68-.87.09-.29.24-.56.31-.85.3-1.21-.36-2.19-1.43-2.14-.77.04-1.46.3-2.03.85-1.03.98-1.52,2.23-1.8,3.58-.38,1.87-.39,3.72.63,5.43.71,1.2,1.74,1.96,3.18,1.86,1.58-.11,2.52-1.18,3.28-2.43.08-.12.05-.32.05-.48,0-2.09,0-4.18,0-6.2Zm6.44,5.62s.07.02.11.03c.02.3,0,.61.06.91.08.4.18.79.32,1.17.43,1.19,1.43,1.37,2.29.43,1.06-1.16,1.29-3.64.45-4.98-.33-.53-.81-.85-1.46-.83-.63.03-1.01.46-1.19.99-.25.74-.4,1.51-.59,2.27Zm-48.29-.56c-.16-.74-.21-1.44-.46-2.06-.3-.78-1.15-.88-1.72-.25-.19.21-.35.46-.45.71-.43,1.11-.58,2.27-.43,3.46.06.49.18,1,.38,1.45.36.79,1.07.87,1.63.22.18-.21.36-.46.43-.73.23-.94.42-1.88.62-2.8Zm-9.45.21c-.09-.65-.15-1.21-.26-1.76-.11-.51-.35-.97-.94-1.06-.61-.09-1.04.24-1.26.75-.74,1.7-.84,3.46-.16,5.19.32.82,1.05.91,1.62.23.27-.32.5-.71.6-1.11.19-.76.29-1.55.41-2.25Zm25.48-.07c-.12-.66-.17-1.33-.39-1.95-.11-.32-.49-.65-.82-.77-.45-.17-.87.11-1.13.51-.14.22-.32.45-.35.7-.13,1.1-.27,2.2-.29,3.3-.01.48.17,1,.37,1.45.33.75,1,.86,1.54.25.29-.32.54-.73.65-1.14.2-.76.29-1.54.43-2.34Zm-15.87,6.04c-.1-.04-.2-.08-.3-.12-.66.85-1.35,1.69-1.97,2.57-.21.3-.31.7-.38,1.08-.09.49.05.94.55,1.16.51.22.97.06,1.3-.35.21-.26.38-.6.42-.92.16-1.13.26-2.27.38-3.41Z"/>
  <path d="m109.06,11.53c.08.31.13.59.22.85.49,1.53,2.06,2,3.26.91.56-.51.96-1.19,1.43-1.8.11-.14.16-.36.3-.45.14-.09.38-.14.53-.08.09.03.17.31.14.45-.35,1.63-2.23,3.4-3.86,3.68-1.38.24-2.81-.55-3.43-1.89-.08-.16-.13-.33-.23-.58-.24.33-.42.64-.66.9-.41.45-.8.93-1.29,1.28-.9.64-1.71.34-1.98-.73-.15-.6-.24-1.24-.24-1.86,0-1.4.07-2.8.11-4.2,0-.17,0-.35-.14-.58-.27.36-.57.7-.79,1.09-1.07,1.8-1.64,3.78-1.99,5.83-.07.41-.1.77-.63.79-.54.02-1.04,0-1.19-.66-.07-.31-.12-.64-.12-.96,0-2.34,0-4.67.02-7.01,0-.32-.12-.74.44-.76.66-.03,1.34.37,1.34.84.01,1.22,0,2.43.11,3.69.14-.37.24-.76.41-1.11.41-.85.77-1.75,1.3-2.53.7-1.02,1.62-1.11,2.62-.41.39.28.6.62.58,1.13-.06,1.5-.09,3-.12,4.51,0,.32.04.65.1.96.03.16.13.4.24.42.13.03.36-.09.46-.21.6-.8,1.25-1.56,1.25-2.68.01-1.46.43-2.84,1.6-3.8.47-.39,1.13-.67,1.74-.77,1.27-.21,2.1.58,2.15,1.87.06,1.76-1.06,3.24-2.82,3.7-.25.07-.51.11-.86.18Zm-.23-1.2c1.77.13,3.17-1.5,2.8-2.99-.09-.37-.31-.54-.7-.53-.68.03-1.2.36-1.42.97-.29.8-.45,1.65-.68,2.55Z"/>
  <path d="m6.05,2.48c-1.72,2.06-2.39,4.31-.92,6.96-.95.02-1.49-.42-1.92-.99-.57-.75-.74-1.6-.51-2.53.44-1.86,1.42-3.36,3.06-4.35.4-.24.96-.34,1.43-.31.83.05,1.12.44,1.11,1.28-.03,3.62-.04,7.23-.11,10.84-.02,1.15-.42,2.19-1.36,2.94-.27.21-.61.33-.92.48-.05-.04-.1-.09-.14-.13.03-.18.07-.37.09-.55.13-.94.36-1.88.37-2.82.06-3.35.05-6.7.06-10.05,0-.24,0-.48,0-.72-.08-.02-.16-.03-.24-.05Z"/>
</svg>