<svg width="35" height="35" viewBox="0 0 35 35" fill="none" xmlns="http://www.w3.org/2000/svg">
<g clip-path="url(#clip0_35_16)">
<path d="M17.26 0.04C20.29 0.04 23.33 -0.03 26.36 0.06C30.29 0.17 33.73 3.27 34.36 7.15C34.46 7.78 34.5 8.42 34.5 9.06C34.51 14.58 34.51 20.09 34.5 25.61C34.5 30.25 31.39 33.81 26.79 34.44C26.43 34.49 26.06 34.49 25.7 34.49C20.09 34.49 14.48 34.49 8.87 34.49C4.88 34.49 1.65 32.2 0.45 28.46C0.15 27.54 0.0299997 26.53 0.0199997 25.55C-0.0100003 20.01 -2.65543e-07 14.45 -2.65543e-07 8.9C0.0199997 4.31 3.05 0.79 7.56 0.1C8.06 0.02 8.58 0.01 9.09 0.01C11.82 0 14.54 0 17.26 0C17.26 0.01 17.26 0.03 17.26 0.04ZM6.26 17.22C6.23 23.23 11.13 28.21 17.13 28.24C23.22 28.28 28.21 23.42 28.25 17.42C28.29 11.29 23.44 6.3 17.41 6.26C11.24 6.22 6.29 11.09 6.26 17.23V17.22ZM29.01 7.86C30.31 7.86 31.38 6.82 31.4 5.52C31.42 4.23 30.36 3.14 29.06 3.12C27.73 3.1 26.64 4.17 26.64 5.49C26.64 6.8 27.69 7.85 29 7.86H29.01Z" fill="black"/>
<path d="M9.46 17.2C9.46 12.92 12.9 9.51 17.16 9.43C21.44 9.35 24.98 12.89 25.08 17.05C25.19 21.47 21.48 25.15 17.11 25.07C12.96 24.99 9.33 21.48 9.46 17.2Z" fill="black"/>
</g>
<defs>
<clipPath id="clip0_35_16">
<rect width="34.51" height="34.5" fill="white"/>
</clipPath>
</defs>
</svg>
